Coordinates
version=1
nRows=8
nColumns=36
inDegrees=yes

Units are S.I. units (second, meters, Newtons, ...)
If the header above contains a line with 'inDegrees', this indicates whether rotational values are in degrees (yes) or radians (no).

endheader
time	pelvis_tilt	pelvis_list	pelvis_rotation	pelvis_tx	pelvis_ty	pelvis_tz	hip_flexion_r	hip_adduction_r	hip_rotation_r	knee_angle_r	knee_angle_r_beta	ankle_angle_r	subtalar_angle_r	mtp_angle_r	hip_flexion_l	hip_adduction_l	hip_rotation_l	knee_angle_l	knee_angle_l_beta	ankle_angle_l	subtalar_angle_l	mtp_angle_l	lumbar_extension	lumbar_bending	lumbar_rotation	arm_flex_r	arm_add_r	arm_rot_r	elbow_flex_r	pro_sup_r	arm_flex_l	arm_add_l	arm_rot_l	elbow_flex_l	pro_sup_l
      1.17083330	    -18.99828593	      4.99483530	     -4.63898215	     -0.78859765	      1.17579485	     -0.07020410	     31.74437011	     -5.94422784	      0.88850990	     37.94541340	      0.66227240	     24.15126119	     -3.35108481	     -7.49999987	     21.86082700	     -1.10736275	     -7.64623757	     22.36464892	      0.39033676	     19.05222136	      5.73815901	     -7.49999987	    -27.49362945	     -3.66564777	      1.96824797	     16.19222999	    -14.61305720	     29.65282118	     30.23426073	     68.73209075	     17.05996031	    -13.77804105	     36.72416652	     31.83392569	     67.51388308
      1.17500000	    -19.74958518	      5.09579993	     -4.60813596	     -0.78913679	      1.17440073	     -0.06987276	     33.03017012	     -5.95532851	      1.12614573	     38.69529715	      0.67536034	     24.32999686	     -3.49339219	     -7.49999987	     23.49237012	     -1.13322334	     -7.33283526	     23.70484463	      0.41372759	     19.11472324	      5.13789397	     -7.49999987	    -27.14593814	     -3.74120204	      1.81566268	     16.54360761	    -14.79399875	     29.30502642	     31.63641489	     68.16250342	     17.48048719	    -13.74465696	     36.35731098	     33.34240660	     67.01088740
      1.17916670	    -19.71355683	      4.92419199	     -4.45569373	     -0.78888759	      1.17418483	     -0.07025405	     33.14977883	     -5.83070320	      1.09114265	     39.00061476	      0.68068914	     23.93414909	     -4.07852516	     -7.49999987	     23.86377832	     -1.15202014	     -6.68925080	     24.46932054	      0.42707021	     19.06932928	      3.71046517	     -7.49999987	    -27.88626436	     -3.45213013	      1.81881300	     17.04209188	    -14.70075639	     27.19342371	     32.11419110	     68.58886239	     18.28734312	    -12.91401217	     34.16102021	     33.58077376	     67.32957955
      1.18333330	    -20.36296339	      4.98906706	     -4.46582444	     -0.78891777	      1.17278372	     -0.06982921	     34.28320147	     -5.87145227	      1.06714483	     39.65031692	      0.69202858	     23.94151780	     -4.17590320	     -7.49999987	     25.23922531	     -1.07053700	     -6.21239154	     25.61361097	      0.44704184	     19.21806104	      2.50142591	     -7.49999987	    -27.85867864	     -3.48303994	      1.68932138	     17.39413825	    -14.52390737	     23.40535124	     33.55065881	     75.79218927	     17.70747967	    -12.16509077	     28.08243467	     35.45833097	     73.58601216
      1.18750000	    -20.95130328	      4.97720814	     -4.18885332	     -0.78871090	      1.17109493	     -0.06994433	     35.25216990	     -5.82441549	      1.12088280	     40.37591972	      0.70469274	     24.13013242	     -4.41058053	     -7.49999987	     26.54629699	     -1.04903028	     -5.86948944	     26.80129533	      0.46777085	     19.52709951	      1.99308413	     -7.49999987	    -27.76135523	     -3.41689339	      1.57200958	     18.14561808	    -14.78819868	     23.31209521	     34.77049760	     75.08682329	     18.30350412	    -12.13785881	     28.01119048	     36.78332507	     72.97547949
      1.19166670	    -21.15832375	      4.54832396	     -3.80371390	     -0.78847449	      1.17074204	     -0.07042064	     35.39188420	     -5.51380660	      0.84837213	     40.47621408	      0.70644320	     23.71300301	     -5.46346689	     -7.49999987	     27.50039869	     -1.22331885	     -4.77786418	     28.19370460	      0.49207297	     19.49497083	      0.22770331	     -7.49999987	    -28.07137140	     -2.73382753	      1.38820655	     19.90844405	    -15.39970423	     23.86854881	     35.76503669	     75.28322053	     19.56059577	    -11.69027392	     28.16616851	     37.73590532	     73.21298023
      1.19583330	    -21.41821798	      4.39014858	     -3.48526452	     -0.78775857	      1.16944593	     -0.07071806	     35.58882966	     -5.43858999	      0.83561997	     40.60815416	      0.70874599	     23.70216111	     -5.75837051	     -7.49999987	     28.31184493	     -1.15948189	     -4.07037138	     28.99591464	      0.50607418	     19.32941614	     -0.88475726	     -7.49999987	    -28.26756409	     -2.44199519	      1.13582134	     21.81258108	    -15.90859244	     25.09650252	     37.10538220	     76.76006283	     20.53642465	    -11.28236443	     27.79922449	     38.78854727	     74.51581665
      1.20000000	    -21.83287067	      4.12242042	     -2.99275994	     -0.78748202	      1.16830634	     -0.07102592	     36.00656229	     -5.39424834	      0.36924544	     40.79660143	      0.71203502	     23.72778193	     -6.04088796	     -7.49999987	     29.21340463	     -1.20573843	     -3.32751264	     29.79452550	      0.52001257	     19.58955624	     -1.44066702	     -7.49999987	    -28.27731345	     -1.88934291	      0.84465539	     23.36414729	    -15.99153062	     24.77372853	     38.49006846	     76.58775673	     21.27390505	    -11.02566520	     27.49132828	     39.88387074	     74.38042553
